HIERARCHY
ROOT Hips
{
	OFFSET -3.958830 18.904000 13.208200
	CHANNELS 6 Xposition Yposition Zposition Zrotation Yrotation Xrotation 
	JOINT LHipJoint
	{
		OFFSET 0.000000 0.000000 0.000000
		CHANNELS 3 Zrotation Yrotation Xrotation
		JOINT LeftUpLeg
		{
			OFFSET 1.800000 -1.400000 0.085000
			CHANNELS 3 Zrotation Yrotation Xrotation
			JOINT LeftLeg
			{
				OFFSET 2.215000 -6.000000 0.000000
				CHANNELS 3 Zrotation Yrotation Xrotation
				JOINT LeftFoot
				{
					OFFSET 2.500000 -6.900000 0.000000
					CHANNELS 3 Zrotation Yrotation Xrotation
					JOINT LeftToeBase
					{
						OFFSET 0.200000 -0.500000 1.950000
						CHANNELS 3 Zrotation Yrotation Xrotation
						End Site
						{
							OFFSET 0.000000 0.000000 0.000000
						}
					}
				}
			}
		}
	}
	JOINT RHipJoint
	{
		OFFSET 0.000000 0.000000 0.000000
		CHANNELS 3 Zrotation Yrotation Xrotation
		JOINT RightUpLeg
		{
			OFFSET -1.800000 -1.400000 0.085000
			CHANNELS 3 Zrotation Yrotation Xrotation
			JOINT RightLeg
			{
				OFFSET -2.215000 -6.000000 0.000000
				CHANNELS 3 Zrotation Yrotation Xrotation
				JOINT RightFoot
				{
					OFFSET -2.500000 -6.900000 0.000000
					CHANNELS 3 Zrotation Yrotation Xrotation
					JOINT RightToeBase
					{
						OFFSET -0.200000 -0.500000 1.950000
						CHANNELS 3 Zrotation Yrotation Xrotation
						End Site
						{
							OFFSET 0.000000 0.000000 0.000000
						}
					}
				}
			}
		}
	}
	JOINT LowerBack
	{
		OFFSET 0.000000 0.000000 0.000000
		CHANNELS 3 Zrotation Yrotation Xrotation
		JOINT Spine
		{
			OFFSET -0.087000 1.940000 -0.288900
			CHANNELS 3 Zrotation Yrotation Xrotation
			JOINT Spine1
			{
				OFFSET 0.000000 1.950000 0.060000
				CHANNELS 3 Zrotation Yrotation Xrotation
				JOINT Neck
				{
					OFFSET 0.000000 0.000000 0.000000
					CHANNELS 3 Zrotation Yrotation Xrotation
					JOINT Neck1
					{
						OFFSET 0.000000 1.600000 0.340000
						CHANNELS 3 Zrotation Yrotation Xrotation
						JOINT Head
						{
							OFFSET 0.000000 1.667000 -0.240000
							CHANNELS 3 Zrotation Yrotation Xrotation
							End Site
							{
								OFFSET 0.000000 0.000000 0.000000
							}
						}
					}
				}
				JOINT LeftShoulder
				{
					OFFSET 0.000000 0.000000 0.000000
					CHANNELS 3 Zrotation Yrotation Xrotation
					JOINT LeftArm
					{
						OFFSET 2.700000 1.550000 -0.730000
						CHANNELS 3 Zrotation Yrotation Xrotation
						JOINT LeftForeArm
						{
							OFFSET 5.450000 0.000000 0.000000
							CHANNELS 3 Zrotation Yrotation Xrotation
							JOINT LeftHand
							{
								OFFSET 3.450000 0.000000 0.000000
								CHANNELS 3 Zrotation Yrotation Xrotation
								JOINT LeftHandIndex1
								{
									OFFSET 0.750000 0.000000 0.000000
									CHANNELS 3 Zrotation Yrotation Xrotation
									End Site
									{
										OFFSET 0.000000 0.000000 0.000000
									}
								}
							}
						}
					}
				}
				JOINT RightShoulder
				{
					OFFSET 0.000000 0.000000 0.000000
					CHANNELS 3 Zrotation Yrotation Xrotation
					JOINT RightArm
					{
						OFFSET -2.700000 1.550000 -0.730000
						CHANNELS 3 Zrotation Yrotation Xrotation
						JOINT RightForeArm
						{
							OFFSET -5.450000 0.000000 0.000000
							CHANNELS 3 Zrotation Yrotation Xrotation
							JOINT RightHand
							{
								OFFSET -3.450000 0.000000 0.000000
								CHANNELS 3 Zrotation Yrotation Xrotation
								JOINT RightHandIndex1
								{
									OFFSET -0.750000 0.000000 0.000000
									CHANNELS 3 Zrotation Yrotation Xrotation
									End Site
									{
										OFFSET 0.000000 0.000000 0.000000
									}
								}
							}
						}
					}
				}
			}
		}
	}
}
MOTION
Frames: 6
Frame Time: 0.016667
-0.199120 17.131810 0.523100 -1.438051 -32.565073 19.741037 -15.579240 11.720772 5.192103 11.773835 -5.758347 -39.637391 -21.105180 7.163975 7.046381 0.697871 4.426486 3.217764 -0.565560 -0.878950 -0.339740 17.877659 -9.404922 3.067679 -16.851384 3.300781 -14.210473 6.558164 -2.169148 -4.957015 0.274139 -3.521649 3.461636 -0.693960 0.633090 0.122590 -2.395804 -2.396268 -8.932285 0.217983 1.841553 6.052958 11.569066 3.945203 -24.474416 1.755703 -1.952196 -11.556336 -4.102747 9.474798 28.661335 -0.381150 13.613450 30.365000 22.606654 22.491289 4.139424 -33.994649 23.209162 -12.609667 -2.556210 -9.858762 -0.243903 -4.048920 3.243552 -0.288860 0.488680 -0.518490 0.097500 -23.403464 -16.474526 3.788999 39.409337 -4.679810 -9.146638 -19.941659 20.213997 -1.071412 3.058834 -1.900343 -0.097220 -0.350120 0.045760 0.121820 
-0.053290 17.132260 0.651600 -0.985498 -24.851923 18.818125 -15.566144 11.679038 5.034435 7.274875 -7.303143 -41.550613 -17.347343 7.281182 11.594800 0.594532 4.014738 3.370220 -0.623680 -0.967360 -0.372940 17.907150 -9.519342 3.136564 -16.554909 3.186075 -12.140786 7.375337 -2.342143 -5.528443 0.280459 -3.836325 3.362702 -0.730510 0.647610 0.154250 -2.418311 -2.080122 -8.807930 0.215869 2.236110 6.376816 12.075628 4.310844 -23.384618 1.735523 -1.177447 -11.656066 -2.504327 6.347989 26.554784 -3.056490 11.988370 30.908410 19.987511 22.537618 3.489671 -34.358287 27.151807 -14.218764 -5.396232 -14.585398 0.162687 -4.030489 3.436022 -0.352170 0.541510 -0.581130 0.067630 -21.549200 -15.748587 5.260872 34.709224 -7.932175 -8.683521 -15.088711 26.999884 -0.691602 2.872614 -2.047613 -0.091440 -0.407370 0.085780 0.117760 
0.053460 17.193160 0.807500 -2.291653 -20.754370 17.991701 -15.477605 12.075625 4.987715 4.389673 -7.339861 -40.847269 -13.459563 6.728177 13.396903 0.466385 3.515766 3.523698 -0.616480 -0.994900 -0.305070 17.889463 -10.056753 2.967405 -14.801038 2.801486 -11.101573 6.621195 -2.911816 -1.337485 0.308085 -3.600404 3.444523 -0.757180 0.554040 0.120390 -2.409389 -1.834759 -8.803130 2.486417 2.695761 7.483658 11.263664 5.711702 -24.883846 1.610535 -0.527044 -12.424683 -1.566013 4.495753 29.305117 -4.091460 10.749930 30.708570 19.218775 23.922120 2.262228 -34.294165 31.094396 -15.204190 -3.348030 -17.396604 0.385510 -3.994286 3.355255 -0.251280 0.459520 -0.519900 0.031680 -21.568757 -15.076550 6.776881 32.670146 -8.511754 -7.782269 -11.593609 33.379843 0.151235 2.762775 -2.082407 -0.109400 -0.392110 0.079520 0.072140 
0.172650 17.264050 0.949120 -2.724086 -16.131440 17.173252 -15.399051 12.454045 5.009520 0.957505 -7.633397 -39.410511 -10.128971 5.855991 14.000743 0.346088 2.976160 3.688852 -0.590430 -1.016590 -0.230350 17.848060 -10.589349 2.771083 -13.891645 2.548003 -11.844278 5.336852 -3.479476 4.208369 0.353670 -3.312581 3.520443 -0.788170 0.439550 0.109100 -2.416728 -1.593246 -8.812300 4.057379 3.486952 8.432060 9.095999 7.032943 -27.285326 1.600572 0.583818 -13.367944 0.141145 2.084213 32.485259 -4.877350 8.266840 30.316410 19.909408 25.094649 1.703292 -34.357885 33.105702 -15.268571 -3.126010 -22.989271 1.337440 -3.857936 3.524415 -0.150880 0.371060 -0.457590 -0.010500 -23.198600 -14.737168 7.733348 32.513811 -7.690761 -7.222918 -6.865757 31.279485 1.126669 2.749001 -1.998271 -0.100830 -0.409180 0.076250 0.022190 
0.318540 17.283030 1.070110 -3.267648 -9.770148 16.787427 -15.342299 12.661483 5.063797 -1.735997 -7.872327 -38.308190 -7.442442 5.007144 13.868494 0.223658 2.624942 3.816444 -0.621160 -1.078650 -0.182350 17.841397 -11.099726 2.462725 -12.727208 2.433637 -13.574868 3.425127 -4.226398 12.753529 0.433146 -3.334561 3.470408 -0.803940 0.405460 0.153490 -2.553278 -1.215248 -8.633421 6.108042 3.419003 8.576687 7.221405 7.597690 -28.106674 1.335439 2.834448 -13.381015 4.171655 -1.487740 30.792907 -8.527660 7.617560 29.046550 20.717072 25.634396 1.330107 -33.688340 35.608016 -15.431592 -7.202701 -27.273063 2.548533 -3.795371 3.790275 -0.167770 0.413260 -0.471000 -0.073300 -25.074086 -15.037931 7.617542 34.058760 -3.129146 -6.464529 -8.556187 21.452920 0.039652 2.867195 -1.829903 -0.101690 -0.449460 0.111740 -0.024880 
0.473900 17.312330 1.168410 -4.511389 -4.081562 15.514683 -15.263950 12.791116 5.041188 -3.550253 -7.609036 -37.250847 -5.005732 4.509747 14.909670 0.117309 2.476864 3.864254 -0.579100 -1.041640 -0.095660 17.860200 -11.435061 2.425764 -11.310807 2.837760 -15.012273 2.821414 -5.047584 20.663725 0.393375 -3.775612 3.280189 -0.758650 0.344050 0.169240 -2.803870 -0.750884 -8.599687 9.469676 3.808159 9.651453 4.323439 9.246130 -29.246978 0.419204 5.512326 -13.303048 9.149553 -4.873036 30.030571 -11.358460 6.299730 27.163400 20.830347 25.734230 1.313762 -31.112878 38.144867 -13.529400 -15.594276 -35.700342 6.136405 -3.519710 4.404118 -0.160620 0.427520 -0.453150 -0.105630 -25.663769 -14.554874 6.894170 37.738698 4.447494 -4.121440 -13.559623 6.754061 -0.560664 3.122855 -1.613081 -0.103370 -0.452280 0.098330 -0.072080 
